<?xml version="1.0" encoding="utf-8"?>
<!-- Generator: Adobe Illustrator 24.0.0, SVG Export Plug-In . SVG Version: 6.00 Build 0)  -->
<svg version="1.1" id="Layer_1" xmlns="http://www.w3.org/2000/svg" xmlns:xlink="http://www.w3.org/1999/xlink" x="0px" y="0px"
	 viewBox="0 0 123.7 54.6" style="enable-background:new 0 0 123.7 54.6;" xml:space="preserve">
<style type="text/css">
	.st0{fill:#FDFDFF;}
	.st1{fill:#141ED2;}
	.st2{fill:#EB2D4B;}
</style>
<rect x="0.3" y="1.6" class="st0" width="123.2" height="54.2"/>
<g>
	<path class="st1" d="M62.2,41.7v-24H69l5.7,9.6l5.7-9.6h6.8v24h-6.8V29.5l-3.6,6.2h-4.1L69,29.5v12.2H62.2z"/>
	<path class="st1" d="M109.4,34.9c0,2.1-0.7,3.7-2.1,4.9c-1.4,1.3-3.2,1.9-5.5,1.9H90.8v-24h9.9c2.3,0,4.2,0.6,5.6,1.8
		c1.4,1.2,2.1,2.8,2.1,4.8c0,2.2-0.8,3.9-2.3,5.1C108.1,30.1,109.4,32.2,109.4,34.9z M97.6,23.5v3.2h1.9c1.2,0,2-0.6,2-1.6
		s-0.8-1.6-2-1.6H97.6z M100.4,35.8c1.2,0,2-0.7,2-1.8c0-1-0.8-1.8-2-1.8h-2.8v3.5H100.4z"/>
</g>
<g>
	<path class="st2" d="M38.8,12.5l-4.6,5.8c-0.6,0.7-1.6,0.8-2.3,0.3l0,0c-0.7-0.6-0.8-1.6-0.3-2.3l4.6-5.8c0.6-0.7,1.6-0.8,2.3-0.3
		l0,0C39.3,10.7,39.4,11.8,38.8,12.5z"/>
	<path class="st2" d="M27.2,28.8l-4.6,5.8c-0.6,0.7-1.6,0.8-2.3,0.3l0,0c-0.7-0.6-0.8-1.6-0.3-2.3l4.6-5.8c0.6-0.7,1.6-0.8,2.3-0.3
		l0,0C27.6,27.1,27.8,28.1,27.2,28.8z"/>
	<path class="st2" d="M20.3,25.4l-4.7-5.7C15,19,15.1,18,15.8,17.4l0,0c0.7-0.6,1.7-0.5,2.3,0.2l4.7,5.7c0.6,0.7,0.5,1.7-0.2,2.3
		l0,0C21.9,26.3,20.9,26.1,20.3,25.4z"/>
	<path class="st2" d="M31.9,41.3l-4.7-5.7c-0.6-0.7-0.5-1.7,0.2-2.3h0c0.7-0.6,1.7-0.5,2.3,0.2l4.7,5.7c0.6,0.7,0.5,1.7-0.2,2.3v0
		C33.5,42.1,32.4,42,31.9,41.3z"/>
	<path class="st2" d="M30.6,24.1l-7-2.5c-0.9-0.3-1.3-1.2-1-2.1v0c0.3-0.9,1.2-1.3,2.1-1l7,2.5c0.9,0.3,1.3,1.2,1,2.1l0,0
		C32.4,24,31.5,24.4,30.6,24.1z"/>
	<path class="st2" d="M36.4,26.5V19c0-0.9,0.7-1.6,1.6-1.6h0c0.9,0,1.6,0.7,1.6,1.6v7.4c0,0.9-0.7,1.6-1.6,1.6h0
		C37.1,28.1,36.4,27.4,36.4,26.5z"/>
	<path class="st2" d="M36.4,46v-7.4c0-0.9,0.7-1.6,1.6-1.6h0c0.9,0,1.6,0.7,1.6,1.6V46c0,0.9-0.7,1.6-1.6,1.6h0
		C37.1,47.7,36.4,46.9,36.4,46z"/>
	<path class="st2" d="M35.8,32.2l7.1-2.1c0.9-0.3,1.8,0.2,2,1.1v0c0.3,0.9-0.2,1.8-1.1,2l-7.1,2.1c-0.9,0.3-1.8-0.2-2-1.1v0
		C34.5,33.4,34.9,32.5,35.8,32.2z"/>
	<path class="st2" d="M17.3,38l7.1-2.1c0.9-0.3,1.8,0.2,2,1.1l0,0c0.3,0.9-0.2,1.8-1.1,2l-7.1,2.1c-0.9,0.3-1.8-0.2-2-1.1l0,0
		C15.9,39.2,16.4,38.2,17.3,38z"/>
	<path class="st2" d="M43.8,24.9l7,2.4c0.9,0.3,1.3,1.2,1,2.1l0,0c-0.3,0.9-1.2,1.3-2.1,1l-7-2.4c-0.9-0.3-1.3-1.2-1-2.1v0
		C42,25,42.9,24.6,43.8,24.9z"/>
</g>
</svg>
